<?xml version="1.0" encoding="UTF-8"?>
<!DOCTYPE svg PUBLIC "-//W3C//DTD SVG 1.1//EN" "http://www.w3.org/Graphics/SVG/1.1/DTD/svg11.dtd">
<svg xmlns="http://www.w3.org/2000/svg" version="1.1" width="499px" height="133px" style="shape-rendering:geometricPrecision; text-rendering:geometricPrecision; image-rendering:optimizeQuality; fill-rule:evenodd; clip-rule:evenodd" xmlns:xlink="http://www.w3.org/1999/xlink">
<g><path style="opacity:0.602" fill="#6b6b6b" d="M 116.5,42.5 C 111.637,42.1805 106.97,42.5139 102.5,43.5C 101.957,43.44 101.624,43.1067 101.5,42.5C 106.652,41.1863 111.652,41.1863 116.5,42.5 Z"/></g>
<g><path style="opacity:0.597" fill="#707070" d="M 152.5,43.5 C 147.6,42.2001 142.6,42.2001 137.5,43.5C 139.743,42.1883 142.41,41.5217 145.5,41.5C 148.167,41.8333 150.833,42.1667 153.5,42.5C 153.376,43.1067 153.043,43.44 152.5,43.5 Z"/></g>
<g><path style="opacity:0.728" fill="#b8c88f" d="M 232.5,42.5 C 220.167,42.5 207.833,42.5 195.5,42.5C 195.5,45.8333 195.5,49.1667 195.5,52.5C 199.702,52.1832 203.702,52.5166 207.5,53.5C 203.167,53.5 198.833,53.5 194.5,53.5C 194.5,49.5 194.5,45.5 194.5,41.5C 207.344,41.1713 220.011,41.5046 232.5,42.5 Z"/></g>
<g><path style="opacity:1" fill="#90ab4e" d="M 364.5,40.5 C 371.489,39.907 378.156,41.0736 384.5,44C 385.357,44.6891 386.023,45.5224 386.5,46.5C 384.921,49.9939 383.087,53.3272 381,56.5C 376.242,52.6812 371.075,51.8478 365.5,54C 363.777,57.4079 364.777,59.7413 368.5,61C 376.178,63.0775 382.345,67.2442 387,73.5C 390.174,84.6539 386.34,92.1539 375.5,96C 366.339,97.5567 357.672,96.2233 349.5,92C 348.5,91 347.5,90 346.5,89C 348.709,85.414 351.043,81.914 353.5,78.5C 359.242,84.1494 365.742,85.4827 373,82.5C 373.667,81.1667 373.667,79.8333 373,78.5C 368.084,74.957 362.917,71.7903 357.5,69C 349.869,61.3154 349.536,53.3154 356.5,45C 359.099,43.205 361.766,41.705 364.5,40.5 Z"/></g>
<g><path style="opacity:1" fill="#161616" d="M 61.5,41.5 C 69.1739,41.3336 76.8406,41.5003 84.5,42C 93.9866,45.477 97.1533,51.977 94,61.5C 92.8783,63.6238 91.3783,65.4571 89.5,67C 96.4779,68.81 99.8112,73.31 99.5,80.5C 99.9723,86.8608 97.3056,91.3608 91.5,94C 81.2456,95.4262 70.9122,95.9262 60.5,95.5C 60.2206,77.4724 60.5539,59.4724 61.5,41.5 Z M 74.5,51.5 C 81.5298,51.7459 83.5298,54.9126 80.5,61C 78.6547,62.128 76.6547,62.628 74.5,62.5C 74.5,58.8333 74.5,55.1667 74.5,51.5 Z M 74.5,73.5 C 78.3884,73.3452 81.8884,74.3452 85,76.5C 85.8907,79.4976 85.3907,82.1643 83.5,84.5C 80.5701,85.299 77.5701,85.6323 74.5,85.5C 74.5,81.5 74.5,77.5 74.5,73.5 Z"/></g>
<g><path style="opacity:1" fill="#171717" d="M 116.5,42.5 C 120.39,47.2548 124.056,52.2548 127.5,57.5C 129.521,54.7653 131.521,52.0986 133.5,49.5C 134.906,49.0269 135.573,48.0269 135.5,46.5C 136.906,46.0269 137.573,45.0269 137.5,43.5C 142.6,42.2001 147.6,42.2001 152.5,43.5C 146.677,52.4716 140.844,61.4716 135,70.5C 134.667,78.5 134.333,86.5 134,94.5C 129.599,95.4667 125.099,95.8 120.5,95.5C 120.666,87.16 120.5,78.8267 120,70.5C 114.146,61.4433 108.312,52.4433 102.5,43.5C 106.97,42.5139 111.637,42.1805 116.5,42.5 Z"/></g>
<g><path style="opacity:0.817" fill="#3b3b3b" d="M 188.5,42.5 C 178.5,42.5 168.5,42.5 158.5,42.5C 158.5,60.1667 158.5,77.8333 158.5,95.5C 157.503,77.6744 157.17,59.6744 157.5,41.5C 168.014,41.1724 178.347,41.5058 188.5,42.5 Z"/></g>
<g><path style="opacity:1" fill="#030303" d="M 188.5,42.5 C 188.5,45.8333 188.5,49.1667 188.5,52.5C 182.167,52.5 175.833,52.5 169.5,52.5C 169.5,56.1667 169.5,59.8333 169.5,63.5C 175.5,63.5 181.5,63.5 187.5,63.5C 188.833,66.8333 188.833,70.1667 187.5,73.5C 181.5,73.5 175.5,73.5 169.5,73.5C 169.5,77.1667 169.5,80.8333 169.5,84.5C 175.31,85.4896 181.31,85.8229 187.5,85.5C 187.5,88.8333 187.5,92.1667 187.5,95.5C 177.833,95.5 168.167,95.5 158.5,95.5C 158.5,77.8333 158.5,60.1667 158.5,42.5C 168.5,42.5 178.5,42.5 188.5,42.5 Z"/></g>
<g><path style="opacity:0.997" fill="#85a43d" d="M 232.5,42.5 C 232.5,45.8333 232.5,49.1667 232.5,52.5C 228.167,52.5 223.833,52.5 219.5,52.5C 219.5,66.8333 219.5,81.1667 219.5,95.5C 215.5,95.5 211.5,95.5 207.5,95.5C 207.5,81.5 207.5,67.5 207.5,53.5C 203.702,52.5166 199.702,52.1832 195.5,52.5C 195.5,49.1667 195.5,45.8333 195.5,42.5C 207.833,42.5 220.167,42.5 232.5,42.5 Z"/></g>
<g><path style="opacity:0.997" fill="#8daa4b" d="M 253.5,77.5 C 253.539,76.2438 253.039,75.2438 252,74.5C 251.5,81.4921 251.334,88.4921 251.5,95.5C 247.167,95.5 242.833,95.5 238.5,95.5C 238.5,77.5 238.5,59.5 238.5,41.5C 247.173,41.3336 255.84,41.5002 264.5,42C 275.683,46.1716 279.183,54.0049 275,65.5C 272.833,69 270,71.8333 266.5,74C 271.978,80.9792 277.645,87.8125 283.5,94.5C 277.833,95.8333 272.167,95.8333 266.5,94.5C 261.915,88.9834 257.582,83.3167 253.5,77.5 Z M 257.5,52.5 C 262.078,53.8432 263.578,56.8432 262,61.5C 259.516,64.2776 256.349,65.6109 252.5,65.5C 252.5,61.1667 252.5,56.8333 252.5,52.5C 254.167,52.5 255.833,52.5 257.5,52.5 Z"/></g>
<g><path style="opacity:0.662" fill="#b1c483" d="M 408.5,62.5 C 408.5,62.8333 408.5,63.1667 408.5,63.5C 407.509,56.6866 407.175,49.6866 407.5,42.5C 403.833,42.5 400.167,42.5 396.5,42.5C 396.5,60.1667 396.5,77.8333 396.5,95.5C 395.503,77.6744 395.17,59.6744 395.5,41.5C 399.833,41.5 404.167,41.5 408.5,41.5C 408.5,48.5 408.5,55.5 408.5,62.5 Z"/></g>
<g><path style="opacity:0.998" fill="#89a744" d="M 425.5,41.5 C 429.833,41.5 434.167,41.5 438.5,41.5C 438.5,59.5 438.5,77.5 438.5,95.5C 434.167,95.5 429.833,95.5 425.5,95.5C 425.5,88.1667 425.5,80.8333 425.5,73.5C 419.642,73.1778 413.975,73.5111 408.5,74.5C 408.5,81.5 408.5,88.5 408.5,95.5C 404.5,95.5 400.5,95.5 396.5,95.5C 396.5,77.8333 396.5,60.1667 396.5,42.5C 400.167,42.5 403.833,42.5 407.5,42.5C 407.175,49.6866 407.509,56.6866 408.5,63.5C 414.167,63.5 419.833,63.5 425.5,63.5C 425.5,56.1667 425.5,48.8333 425.5,41.5 Z"/></g>
<g><path style="opacity:0.996" fill="#65a6cc" d="M 308.5,42.5 C 317.307,40.3209 323.474,43.3209 327,51.5C 328.333,50.1667 329.667,50.1667 331,51.5C 330.501,56.1758 329.668,60.8425 328.5,65.5C 323.634,65.4504 318.968,64.4504 314.5,62.5C 313.266,60.6017 313.599,58.935 315.5,57.5C 312.346,52.859 310.012,47.859 308.5,42.5 Z"/></g>
<g><path style="opacity:0.569" fill="#7f7f7f" d="M 137.5,43.5 C 137.573,45.0269 136.906,46.0269 135.5,46.5C 135.427,44.9731 136.094,43.9731 137.5,43.5 Z"/></g>
<g><path style="opacity:0.522" fill="#878787" d="M 135.5,46.5 C 135.573,48.0269 134.906,49.0269 133.5,49.5C 133.427,47.9731 134.094,46.9731 135.5,46.5 Z"/></g>
<g><path style="opacity:0.997" fill="#6aa9cd" d="M 305.5,46.5 C 306.496,46.4142 307.329,46.7476 308,47.5C 309.833,50.6667 311.667,53.8333 313.5,57C 309.702,67.5373 304.702,68.204 298.5,59C 300.712,54.7412 303.045,50.5746 305.5,46.5 Z"/></g>
<g><path style="opacity:0.24" fill="#e1e7d1" d="M 232.5,52.5 C 228.702,53.4834 224.702,53.8168 220.5,53.5C 220.829,67.6766 220.496,81.6766 219.5,95.5C 219.5,81.1667 219.5,66.8333 219.5,52.5C 223.833,52.5 228.167,52.5 232.5,52.5 Z"/></g>
<g><path style="opacity:0.104" fill="#eaf2de" d="M 257.5,52.5 C 255.833,52.5 254.167,52.5 252.5,52.5C 252.5,56.8333 252.5,61.1667 252.5,65.5C 251.514,61.03 251.181,56.3633 251.5,51.5C 253.735,51.2053 255.735,51.5386 257.5,52.5 Z"/></g>
<g><path style="opacity:0.216" fill="#c2c2c2" d="M 188.5,52.5 C 182.69,53.4896 176.69,53.8229 170.5,53.5C 170.5,56.5 170.5,59.5 170.5,62.5C 176.358,62.1778 182.025,62.5111 187.5,63.5C 181.5,63.5 175.5,63.5 169.5,63.5C 169.5,59.8333 169.5,56.1667 169.5,52.5C 175.833,52.5 182.167,52.5 188.5,52.5 Z"/></g>
<g><path style="opacity:0.24" fill="#e5ead5" d="M 425.5,41.5 C 425.5,48.8333 425.5,56.1667 425.5,63.5C 419.833,63.5 414.167,63.5 408.5,63.5C 408.5,63.1667 408.5,62.8333 408.5,62.5C 413.833,62.5 419.167,62.5 424.5,62.5C 424.175,55.3134 424.509,48.3134 425.5,41.5 Z"/></g>
<g><path style="opacity:0.861" fill="#ffe0b5" d="M 302.5,66.5 C 300.167,66.5 297.833,66.5 295.5,66.5C 296.997,65.6942 298.664,65.0276 300.5,64.5C 301.522,64.8555 302.189,65.5222 302.5,66.5 Z"/></g>
<g><path style="opacity:1" fill="#fba935" d="M 295.5,66.5 C 297.833,66.5 300.167,66.5 302.5,66.5C 302.171,69.2282 302.837,71.5615 304.5,73.5C 304.5,73.8333 304.5,74.1667 304.5,74.5C 304.5,76.1667 304.5,77.8333 304.5,79.5C 303.5,79.5 302.5,79.5 301.5,79.5C 298.588,84.2626 295.421,88.9293 292,93.5C 285.755,87.5426 284.922,80.876 289.5,73.5C 287.621,71.9303 287.288,70.2637 288.5,68.5C 291.228,68.8294 293.562,68.1628 295.5,66.5 Z"/></g>
<g><path style="opacity:0.995" fill="#9bb360" d="M 326.5,77.5 C 323.396,71.0264 325.563,67.0264 333,65.5C 334.261,65.7591 335.261,66.4258 336,67.5C 338.223,70.7792 340.057,74.2792 341.5,78C 341.355,78.772 341.022,79.4387 340.5,80C 335.291,81.19 330.625,80.3566 326.5,77.5 Z"/></g>
<g><path style="opacity:0.918" fill="#ffd7a1" d="M 295.5,66.5 C 293.562,68.1628 291.228,68.8294 288.5,68.5C 290.599,67.3882 292.933,66.7215 295.5,66.5 Z"/></g>
<g><path style="opacity:0.937" fill="#ffdaa7" d="M 302.5,66.5 C 303.612,68.5994 304.279,70.9327 304.5,73.5C 302.837,71.5615 302.171,69.2282 302.5,66.5 Z"/></g>
<g><path style="opacity:0.458" fill="#898989" d="M 187.5,73.5 C 182.025,74.4889 176.358,74.8222 170.5,74.5C 170.5,77.8333 170.5,81.1667 170.5,84.5C 170.167,84.5 169.833,84.5 169.5,84.5C 169.5,80.8333 169.5,77.1667 169.5,73.5C 175.5,73.5 181.5,73.5 187.5,73.5 Z"/></g>
<g><path style="opacity:0.08" fill="#e2e7cd" d="M 408.5,74.5 C 413.975,73.5111 419.642,73.1778 425.5,73.5C 425.5,80.8333 425.5,88.1667 425.5,95.5C 424.509,88.6866 424.175,81.6866 424.5,74.5C 419.167,74.5 413.833,74.5 408.5,74.5 Z"/></g>
<g><path style="opacity:0.999" fill="#94ae54" d="M 326.5,77.5 C 326.5,78.8333 326.5,80.1667 326.5,81.5C 331.844,81.334 337.177,81.5006 342.5,82C 342.957,82.414 343.291,82.914 343.5,83.5C 342.211,86.5802 340.545,89.4136 338.5,92C 334.637,93.3537 330.637,93.8537 326.5,93.5C 326.5,94.8333 326.5,96.1667 326.5,97.5C 321.251,96.1021 317.251,92.9354 314.5,88C 317.473,83.1848 321.473,79.6848 326.5,77.5 Z"/></g>
<g><path style="opacity:0.161" fill="#ffe7c9" d="M 304.5,74.5 C 305.461,76.2646 305.795,78.2646 305.5,80.5C 303.901,80.7678 302.568,80.4345 301.5,79.5C 302.5,79.5 303.5,79.5 304.5,79.5C 304.5,77.8333 304.5,76.1667 304.5,74.5 Z"/></g>
<g><path style="opacity:0.095" fill="#e8f3de" d="M 253.5,77.5 C 252.833,83.5 252.167,89.5 251.5,95.5C 251.334,88.4921 251.5,81.4921 252,74.5C 253.039,75.2438 253.539,76.2438 253.5,77.5 Z"/></g>
<g><path style="opacity:1" fill="#fcad41" d="M 301.5,81.5 C 311.206,79.5358 314.539,83.2025 311.5,92.5C 306.167,93.8333 300.833,93.8333 295.5,92.5C 297.258,88.6462 299.258,84.9795 301.5,81.5 Z"/></g>
<g><path style="opacity:0.707" fill="#444444" d="M 169.5,84.5 C 169.833,84.5 170.167,84.5 170.5,84.5C 176.5,84.5 182.5,84.5 188.5,84.5C 188.815,88.3714 188.482,92.0381 187.5,95.5C 187.5,92.1667 187.5,88.8333 187.5,85.5C 181.31,85.8229 175.31,85.4896 169.5,84.5 Z"/></g>
<g><path style="opacity:0.945" fill="#8f8f8f" d="M 74.5,73.5 C 74.5,77.5 74.5,81.5 74.5,85.5C 77.5701,85.6323 80.5701,85.299 83.5,84.5C 83.3893,85.1174 83.056,85.6174 82.5,86C 79.5184,86.498 76.5184,86.6646 73.5,86.5C 73.1818,81.9677 73.5151,77.6344 74.5,73.5 Z"/></g>
</svg>
